<svg width="24" height="24" viewBox="0 0 24 24" fill="none" xmlns="http://www.w3.org/2000/svg">
<path d="M11.9858 4.44659C13.9898 4.43647 15.9554 5.07883 17.6554 6.29944C19.3554 7.52006 20.7205 9.2691 21.5929 11.3445C20.9618 12.8424 20.0674 14.1734 18.9664 15.2535L20.531 17.0207C22.066 15.466 23.2555 13.5114 24 11.32C22.792 7.81083 20.468 4.96219 17.5002 3.35276C14.5324 1.74334 11.1432 1.49384 8.02124 2.65494L9.81947 4.72349C10.5318 4.54871 11.2575 4.45596 11.9858 4.44659Z" fill="#9FA3A2"/>
<path d="M10.8177 5.87988L13.0761 8.46963L14.492 10.0984L16.7434 12.6963C16.9348 11.8645 16.9562 10.993 16.8057 10.1501C16.6553 9.30722 16.3372 8.51589 15.8763 7.83817C15.4153 7.16045 14.8242 6.61476 14.1492 6.24392C13.4743 5.87307 12.7338 5.68714 11.9858 5.70071C11.5914 5.7026 11.1988 5.76281 10.8177 5.87988ZM1.09734 1.78351L4.02124 5.13879C2.22172 6.75556 0.832898 8.89881 0 11.3444C1.24875 15.001 3.70904 17.9372 6.8397 19.5073C9.97035 21.0773 13.5149 21.1525 16.6938 19.7163L20.4177 24L21.9469 22.2328L2.63363 0L1.09734 1.78351ZM5.5646 6.92229L7.4761 9.113C7.21124 9.80581 7.07616 10.555 7.07964 11.3118C7.07757 12.2387 7.27544 13.1518 7.65551 13.9691C8.03558 14.7864 8.58599 15.4825 9.25741 15.995C9.92883 16.5074 10.7003 16.8203 11.5027 16.9055C12.305 16.9907 13.1132 16.8456 13.8549 16.4832L13.8973 16.5321L14.9664 17.7618C13.991 18.0724 12.9838 18.2313 11.9717 18.2341C9.97071 18.2377 8.00926 17.5934 6.3116 16.3751C4.61394 15.1567 3.2486 13.4134 2.37168 11.3444C3.12048 9.60326 4.21412 8.08859 5.5646 6.92229Z" fill="#9FA3A2"/>
</svg>
