<svg width="31" height="24" viewBox="0 0 31 24" fill="none" xmlns="http://www.w3.org/2000/svg">
<path d="M27.4163 5.98123C27.4354 6.24372 27.4354 6.50626 27.4354 6.76875C27.4354 14.775 21.2488 24 9.94166 24C6.45813 24 3.2221 23.0062 0.5 21.2813C0.994943 21.3375 1.47079 21.3563 1.98477 21.3563C4.8591 21.3563 7.50509 20.4 9.61804 18.7688C6.91499 18.7125 4.64974 16.9688 3.86927 14.5687C4.25001 14.625 4.6307 14.6625 5.03049 14.6625C5.5825 14.6625 6.13457 14.5874 6.6485 14.4563C3.83124 13.8937 1.71823 11.4562 1.71823 8.51249V8.43752C2.53673 8.88752 3.48859 9.16877 4.4974 9.20622C2.8413 8.1187 1.75631 6.26247 1.75631 4.16246C1.75631 3.03748 2.06083 2.00623 2.59386 1.10622C5.62053 4.78122 10.1701 7.18118 15.2715 7.44372C15.1764 6.99372 15.1193 6.52502 15.1193 6.05626C15.1193 2.71872 17.8604 0 21.2678 0C23.0381 0 24.637 0.731248 25.7602 1.9125C27.1497 1.65001 28.4822 1.14374 29.6625 0.450003C29.2055 1.85628 28.2348 3.03754 26.9594 3.78748C28.1967 3.6563 29.396 3.31872 30.5 2.85002C29.6626 4.04997 28.6156 5.11868 27.4163 5.98123Z" fill="#3E4744"/>
</svg>
